Coordinates
version=1
nRows=14
nColumns=36
inDegrees=yes

Units are S.I. units (second, meters, Newtons, ...)
If the header above contains a line with 'inDegrees', this indicates whether rotational values are in degrees (yes) or radians (no).

endheader
time	pelvis_tilt	pelvis_list	pelvis_rotation	pelvis_tx	pelvis_ty	pelvis_tz	hip_flexion_r	hip_adduction_r	hip_rotation_r	knee_angle_r	knee_angle_r_beta	ankle_angle_r	subtalar_angle_r	mtp_angle_r	hip_flexion_l	hip_adduction_l	hip_rotation_l	knee_angle_l	knee_angle_l_beta	ankle_angle_l	subtalar_angle_l	mtp_angle_l	lumbar_extension	lumbar_bending	lumbar_rotation	arm_flex_r	arm_add_r	arm_rot_r	elbow_flex_r	pro_sup_r	arm_flex_l	arm_add_l	arm_rot_l	elbow_flex_l	pro_sup_l
     29.98333330	     -8.73048422	      0.34024446	     -1.43179018	      0.87177949	      0.79058316	      0.70315469	     33.86346865	     -1.05478732	      3.70361406	      5.06383244	      0.08838055	      6.12186245	     -4.30977133	     -7.49999987	      2.04757618	      1.43353610	     -3.25673375	     15.30983965	      0.26720711	     25.12027553	     -0.44181414	     -7.49999987	     11.91454056	      0.19089004	     -7.26006563	     -5.19383397	    -11.67583034	      4.45054079	      8.27531429	     99.14898036	      5.72016397	    -14.64108671	      6.70881946	     17.64511690	     92.94683733
     30.00000000	     -8.34136436	      0.16044283	     -1.53681412	      0.87151001	      0.78999694	      0.70297642	     33.21533817	     -0.88232788	      3.29649411	      5.34843848	      0.09334786	      5.70550202	     -4.21543800	     -7.49999987	      0.88329958	      1.03299963	     -3.67986009	     15.82294756	      0.27616253	     25.78098830	     -0.21619807	     -7.49999987	     11.40909145	      0.53047639	     -7.34983198	     -5.03625380	    -12.07020753	      4.11651889	      7.87869957	     99.36068621	      5.60564726	    -14.39073125	      6.75492762	     17.51828854	     93.22729770
     30.01666670	     -8.28633439	      0.01908226	     -1.78422605	      0.87201473	      0.79071286	      0.70333852	     32.91307051	     -0.62462524	      2.68862919	      6.50691450	      0.11356708	      4.88754366	     -4.34848411	     -7.49999987	      0.09809559	      0.70239329	     -4.03450578	     16.36472168	      0.28561827	     25.88396420	     -0.39435000	     -7.49999987	     11.34911141	      0.91330873	     -7.30062591	     -4.97143097	    -12.54786316	      4.03950323	      7.75692954	     99.38609405	      5.28310819	    -14.10356963	      6.80524229	     17.39142699	     93.28184832
     30.03333330	     -7.75061362	     -0.23702100	     -2.07852070	      0.87295654	      0.79131326	      0.70441559	     32.01815417	     -0.21190130	      2.10487457	      7.96424983	      0.13900238	      3.87630069	     -4.69181559	     -7.49999987	     -1.12147852	      0.26223753	     -4.51857626	     17.13299531	      0.29902718	     25.78461760	     -0.36964189	     -7.49999987	     10.50496123	      1.49795955	     -7.36758597	     -4.40631201	    -13.04552041	      3.88212791	      7.44696244	     99.49184903	      5.06585709	    -13.81413127	      6.86265734	     17.04783275	     93.43607206
     30.05000000	     -7.09124617	     -0.51962979	     -2.47232770	      0.87354629	      0.79127895	      0.70649684	     30.95701545	      0.31277180	      1.73749540	      9.36418902	      0.16343593	      2.49558520	     -5.25025123	     -7.49999987	     -2.54135940	     -0.14008558	     -4.98113121	     17.88411993	      0.31213678	     25.06776967	     -0.63451308	     -7.49999987	      9.52857950	      2.11674279	     -7.25468152	     -3.68406718	    -13.50095774	      3.73221013	      7.12465800	     99.68697151	      4.89298700	    -13.51564285	      6.86221868	     16.66163015	     93.65613497
     30.06666670	     -6.99167626	     -0.79869199	     -2.88705564	      0.87343187	      0.78997348	      0.70876477	     30.57676396	      0.89068092	      1.47934890	     10.78988075	      0.18831894	      1.51957854	     -5.40633840	     -7.49999987	     -3.12163726	     -0.56622460	     -5.51541202	     19.25231472	      0.33601628	     24.01509786	     -1.03817083	     -7.49999987	      9.28489059	      2.74566128	     -6.95620810	     -3.24830689	    -13.97049416	      3.68809634	      7.16356055	     99.71035858	      4.53323794	    -13.14599958	      6.89727589	     16.45702655	     93.70998117
     30.08333330	     -6.81394754	     -1.21573451	     -3.22080234	      0.87406250	      0.78854161	      0.71070829	     30.07442662	      1.61687862	      1.60172231	     12.05390340	      0.21038030	      0.87690078	     -5.80507464	     -7.49999987	     -3.46842000	     -1.17152814	     -6.01463753	     21.29702018	      0.37170312	     22.51353500	     -1.79200638	     -7.49999987	      8.80110345	      3.51073246	     -6.60454371	     -2.69424784	    -14.42998339	      3.66089038	      7.22291570	     99.72577914	      4.24563102	    -12.66063114	      6.92497645	     16.14079747	     93.76781539
     30.10000000	     -6.48085289	     -1.83586886	     -3.45898602	      0.87705297	      0.78811615	      0.71303887	     29.25675744	      2.55452169	      2.02221573	     13.09163978	      0.22849222	      0.45708343	     -6.79797695	     -7.49999987	     -3.62661816	     -1.97324183	     -6.06497667	     24.00956198	      0.41904591	     20.46237092	     -3.36453912	     -7.49999987	      8.19917763	      4.47729381	     -6.27003217	     -2.17780804	    -14.93157945	      3.69141970	      7.26395372	     99.75824534	      4.05519628	    -11.94789906	      6.91096211	     15.44761444	     93.86769683
     30.11666670	     -6.25594973	     -2.49650045	     -3.61649510	      0.88257656	      0.78875942	      0.71725803	     28.41395455	      3.56946131	      2.26421280	     14.11109013	      0.24628498	      0.79686617	     -7.26546295	     -7.49999987	     -3.37943278	     -3.10211549	     -6.67661273	     27.18114582	      0.47440049	     17.49964684	     -3.84374342	     -7.49999987	      7.88548031	      5.17900227	     -5.89315313	     -1.99951791	    -15.26478054	      3.72216648	      7.62090239	     99.62933327	      3.53845828	    -11.40005505	      6.92931660	     15.13986381	     93.80998355
     30.13333330	     -5.88110156	     -3.60379275	     -3.57449203	      0.88995395	      0.79065379	      0.72257432	     27.17248266	      4.99678016	      2.45261055	     15.03494553	      0.26240930	      1.07565228	     -8.58684598	     -7.49999987	     -2.82778689	     -4.68767711	     -6.44743543	     31.10955834	      0.54296422	     13.56077868	     -6.39040937	     -7.49999987	      7.68311058	      6.45497306	     -5.57523589	     -1.78961058	    -15.88076532	      4.20130412	      7.71047126	     99.63468594	      3.58444803	    -10.32582906	      6.73794971	     13.13584159	     93.92232864
     30.15000000	     -5.61924633	     -4.75487579	     -3.49363000	      0.89740880	      0.79384126	      0.72887348	     25.86917753	      6.49767284	      2.25447496	     15.91678461	      0.27780030	      2.13347599	     -9.02672046	     -7.49999987	     -1.84251764	     -6.65450547	     -6.72943607	     35.49058804	      0.61942761	      9.19131616	     -7.34967228	     -7.49999987	      7.82697743	      7.62119081	     -5.21964363	     -1.95066864	    -16.32385037	      4.80311600	      7.92849310	     99.55712050	      3.19195215	     -9.47885014	      6.60760340	     11.70842554	     93.97533167
     30.16666670	     -5.28106680	     -5.94110882	     -3.35504057	      0.90114616	      0.79742789	      0.73497005	     24.23208689	      8.06080761	      2.07879600	     16.41199761	      0.28644340	      3.35768811	     -9.37326444	     -7.49999987	     -0.53845693	     -8.81215113	     -6.95772133	     40.25928924	      0.70265715	      4.66210309	     -7.86025152	     -7.49999987	      7.96874449	      8.73789277	     -4.83633278	     -2.20100550	    -16.62761976	      5.06565642	      8.11210986	     99.43349968	      2.58023390	     -8.82743743	      6.55919049	     11.01652679	     93.92507852
     30.18333330	     -5.19879155	     -6.86853714	     -3.04984402	      0.90082516	      0.79986102	      0.73969457	     22.72865612	      9.30067594	      1.81357920	     16.51761203	      0.28828671	      4.60513993	     -9.59891748	     -7.49999987	      1.48452084	    -10.54899054	     -6.47338723	     45.04608341	      0.78620247	     -0.01862434	     -9.10400152	     -7.49999987	      8.55679282	      9.47613571	     -4.58183165	     -2.52138973	    -16.72379398	      5.50196125	      8.24725924	     99.37717924	      2.17619745	     -8.26608960	      6.48247940	      9.68035789	     93.96099475
     30.20000000	     -5.21093830	     -7.45058253	     -2.70591717	      0.89906286	      0.80114894	      0.74256823	     21.24852577	     10.15170249	      1.64707517	     16.25573531	      0.28371610	      5.76772253	     -9.87012074	     -7.49999987	      3.90641800	    -11.71245105	     -5.65866367	     49.52052349	      0.86429618	     -3.52557608	    -10.29004767	     -7.49999987	      9.09556363	      9.88305430	     -4.15758395	     -2.75695586	    -16.71728986	      5.97733830	      8.50207010	     98.94923845	      1.81966948	     -7.89913710	      6.56108064	      8.73385871	     93.86173128
